<svg xmlns="http://www.w3.org/2000/svg" width="308.646" height="45.738" viewBox="0 0 308.646 45.738">
  <g id="SnoRiders_folio-white" data-name="SnoRiders folio-white" transform="translate(-74.13 -94.78)">
    <path id="Path_1" data-name="Path 1" d="M74.13,136.482l4.758-7.229a22.571,22.571,0,0,0,11.872,3.193c5.124,0,6.81-1.628,6.81-4.58,0-3.915-2.047-4.517-9.338-6.81-8.2-2.528-12.112-5.847-12.112-13.138,0-8.736,5.543-13.138,15.426-13.138,6.208,0,10.123,1.084,13.678,2.774l-4.1,8.077a20.916,20.916,0,0,0-9.338-1.989c-4.517,0-6.449,1.146-6.449,3.978,0,3.073,1.748,3.8,7.108,5.543,10.668,3.434,14.28,5.784,14.28,14.52,0,7.893-4.821,12.835-15.729,12.835C83.589,140.518,78.166,139.136,74.13,136.482Z" transform="translate(0 0)" fill="#fff"/>
    <path id="Path_2" data-name="Path 2" d="M151.7,95.91h10l14.641,25.732V95.91h8.977v44.654h-8.679l-15.97-27.842v27.842H151.7V95.91Z" transform="translate(-40.212 -0.586)" fill="#fff"/>
    <path id="Path_3" data-name="Path 3" d="M231.04,117.68c0-12.175,2.528-22.9,18.5-22.9s18.5,10.725,18.5,22.9c0,12.112-2.533,22.838-18.5,22.838S231.04,129.793,231.04,117.68Zm27.418.3c0-8.375-.963-14.1-8.919-14.1s-8.919,5.726-8.919,14.1c0,8.438.963,14.159,8.919,14.159S258.458,126.421,258.458,117.984Z" transform="translate(-81.341)" fill="#fff"/>
    <path id="Path_4" data-name="Path 4" d="M332.685,125.62h-5.9v14.944H317.5V95.91h17.054c10.725,0,14.7,5.182,14.7,14.222,0,6.569-2.109,11.809-7.47,14.159l7.171,16.269h-9.883Zm1.628-8.255c4.1,0,5.726-1.806,5.726-6.569,0-4.821-1.628-6.569-5.726-6.569h-7.532v13.138Z" transform="translate(-126.162 -0.586)" fill="#fff"/>
    <path id="Path_5" data-name="Path 5" d="M395.7,95.91h9.4v44.654h-9.4Z" transform="translate(-166.7 -0.586)" fill="#fff"/>
    <path id="Path_6" data-name="Path 6" d="M429.86,95.91h13.918c14.159,0,19.645,5.245,19.645,22.3,0,17.415-5.365,22.356-19.645,22.356H429.86Zm14.761,36.457c6.569,0,9.218-2.649,9.218-14.1,0-11.39-2.591-13.74-9.459-13.74h-5.062v27.842Z" transform="translate(-184.409 -0.586)" fill="#fff"/>
    <path id="Path_7" data-name="Path 7" d="M509.185,95.91h27.538v8.616H518.4v8.919h17.535V122H518.4v10.123h18.378v8.438h-27.6V95.91Z" transform="translate(-225.528 -0.586)" fill="#fff"/>
    <path id="Path_8" data-name="Path 8" d="M593.065,125.62h-5.9v14.944H577.88V95.91h17.054c10.725,0,14.7,5.182,14.7,14.222,0,6.569-2.109,11.809-7.47,14.159l7.171,16.269h-9.883Zm1.628-8.255c4.1,0,5.726-1.806,5.726-6.569,0-4.821-1.628-6.569-5.726-6.569h-7.532v13.138Z" transform="translate(-261.142 -0.586)" fill="#fff"/>
    <path id="Path_9" data-name="Path 9" d="M647.31,136.482l4.758-7.229a22.571,22.571,0,0,0,11.872,3.193c5.124,0,6.81-1.628,6.81-4.58,0-3.915-2.047-4.517-9.338-6.81-8.2-2.528-12.112-5.847-12.112-13.138,0-8.736,5.543-13.138,15.426-13.138,6.208,0,10.123,1.084,13.678,2.774l-4.1,8.077a20.916,20.916,0,0,0-9.338-1.989c-4.518,0-6.449,1.146-6.449,3.978,0,3.073,1.748,3.8,7.109,5.543,10.672,3.434,14.284,5.784,14.284,14.52,0,7.893-4.821,12.835-15.729,12.835C656.774,140.518,651.351,139.136,647.31,136.482Z" transform="translate(-297.134 0)" fill="#fff"/>
  </g>
</svg>
