<svg xmlns="http://www.w3.org/2000/svg" width="350.991" height="65.432" viewBox="0 0 350.991 65.432">
  <g id="logo_icon" transform="translate(-216 -36.297)">
    <g id="SnoRiders_folio-white" data-name="SnoRiders folio-white" transform="translate(216 47.968)">
      <path id="Path_1" data-name="Path 1" d="M74.13,127.028l3.68-5.59a17.454,17.454,0,0,0,9.18,2.469c3.963,0,5.266-1.259,5.266-3.542,0-3.028-1.583-3.493-7.221-5.266-6.339-1.955-9.366-4.521-9.366-10.16,0-6.756,4.287-10.16,11.929-10.16a22.971,22.971,0,0,1,10.577,2.145L95,103.171a16.174,16.174,0,0,0-7.221-1.538c-3.493,0-4.987.886-4.987,3.076,0,2.376,1.352,2.935,5.5,4.287,8.249,2.655,11.042,4.473,11.042,11.228,0,6.1-3.728,9.925-12.163,9.925C81.444,130.149,77.251,129.08,74.13,127.028Z" transform="translate(-74.13 -94.78)" fill="#fff"/>
      <path id="Path_2" data-name="Path 2" d="M151.7,95.91h7.735l11.322,19.9V95.91H177.7v34.531h-6.711l-12.349-21.53v21.53H151.7V95.91Z" transform="translate(-122.811 -95.489)" fill="#fff"/>
      <path id="Path_3" data-name="Path 3" d="M231.04,112.489c0-9.415,1.955-17.709,14.3-17.709s14.3,8.294,14.3,17.709c0,9.366-1.959,17.66-14.3,17.66S231.04,121.855,231.04,112.489Zm21.2.235c0-6.476-.745-10.9-6.9-10.9s-6.9,4.428-6.9,10.9c0,6.525.745,10.949,6.9,10.949S252.242,119.248,252.242,112.723Z" transform="translate(-172.604 -94.78)" fill="#fff"/>
      <path id="Path_4" data-name="Path 4" d="M329.242,118.885h-4.566v11.556H317.5V95.91h13.187c8.294,0,11.37,4.007,11.37,11,0,5.08-1.631,9.132-5.776,10.949l5.545,12.58h-7.642ZM330.5,112.5c3.169,0,4.428-1.4,4.428-5.08,0-3.728-1.259-5.08-4.428-5.08h-5.825V112.5Z" transform="translate(-226.864 -95.489)" fill="#fff"/>
      <path id="Path_5" data-name="Path 5" d="M395.7,95.91h7.27v34.531H395.7Z" transform="translate(-275.941 -95.489)" fill="#fff"/>
      <path id="Path_6" data-name="Path 6" d="M429.86,95.91h10.763c10.949,0,15.191,4.056,15.191,17.243,0,13.467-4.149,17.288-15.191,17.288H429.86ZM441.275,124.1c5.08,0,7.128-2.048,7.128-10.9,0-8.808-2-10.625-7.314-10.625h-3.914V124.1Z" transform="translate(-297.379 -95.489)" fill="#fff"/>
      <path id="Path_7" data-name="Path 7" d="M509.184,95.91h21.295v6.663H516.312v6.9h13.56v6.618h-13.56v7.828h14.211v6.525H509.18V95.91Z" transform="translate(-347.159 -95.489)" fill="#fff"/>
      <path id="Path_8" data-name="Path 8" d="M589.622,118.885h-4.566v11.556H577.88V95.91h13.187c8.294,0,11.37,4.007,11.37,11,0,5.08-1.631,9.132-5.776,10.949l5.545,12.58h-7.642Zm1.259-6.383c3.169,0,4.428-1.4,4.428-5.08,0-3.728-1.259-5.08-4.428-5.08h-5.825V112.5Z" transform="translate(-390.274 -95.489)" fill="#fff"/>
      <path id="Path_9" data-name="Path 9" d="M647.31,127.028l3.68-5.59a17.454,17.454,0,0,0,9.18,2.469c3.963,0,5.266-1.259,5.266-3.542,0-3.028-1.583-3.493-7.221-5.266-6.339-1.955-9.366-4.521-9.366-10.16,0-6.756,4.287-10.16,11.929-10.16a22.972,22.972,0,0,1,10.577,2.145l-3.169,6.245a16.173,16.173,0,0,0-7.221-1.538c-3.493,0-4.987.886-4.987,3.076,0,2.376,1.352,2.935,5.5,4.287,8.253,2.655,11.046,4.473,11.046,11.228,0,6.1-3.728,9.925-12.163,9.925C654.628,130.149,650.435,129.08,647.31,127.028Z" transform="translate(-433.847 -94.78)" fill="#fff"/>
    </g>
    <g id="Trophy" transform="translate(480.207 36.297)">
      <path id="Fill-19" d="M110.61,10.876c0,2.78-2.381,5.077-5.437,5.388V2.842c3.056.31,5.437,2.608,5.437,5.388Zm-8.537,12.737-.066.108-.028.354a13.917,13.917,0,0,1-27.711,0l-.029-.353-.066-.108V3.034h27.9Zm-31-7.346c-3.073-.3-5.474-2.6-5.474-5.391V8.23c0-2.792,2.4-5.1,5.474-5.391ZM104.467.047h-1A2.138,2.138,0,0,0,103.019,0H73.227a2.136,2.136,0,0,0-.447.047H71.742c-4.941,0-8.961,3.671-8.961,8.183v2.646c0,4.306,3.662,7.844,8.292,8.158v4.8a2.177,2.177,0,0,0,.127.732,16.606,16.606,0,0,0,5.357,10.677,17.051,17.051,0,0,0,9.96,4.4V47.8H78.325a.657.657,0,0,0-.664.65V50.3a.657.657,0,0,0,.664.65H97.478a.657.657,0,0,0,.664-.65V48.454a.657.657,0,0,0-.664-.65H89.507v-8.14a17.053,17.053,0,0,0,10.182-4.415,16.6,16.6,0,0,0,5.357-10.677,2.17,2.17,0,0,0,.127-.733V19.031c4.612-.33,8.255-3.86,8.255-8.155V8.23c0-4.512-4.02-8.183-8.961-8.183Z" transform="translate(-44.613 0)" fill="#2cfdfe" fill-rule="evenodd"/>
      <path id="Stroke-1" d="M139.8,195.347a3.448,3.448,0,1,1-3.448-3.464A3.456,3.456,0,0,1,139.8,195.347Z" transform="translate(-93.489 -134.379)" fill="none" stroke="#2cfdfe" stroke-width="2" fill-rule="evenodd"/>
      <g id="Group-8" transform="translate(0 0.134)">
        <path id="Fill-3" d="M32.082,43.709a7.818,7.818,0,0,1,.018-1.155c-1.5-.762-6.527-3.393-8.973-5.546a27.071,27.071,0,0,1-6.77-8.575c-.677-1.659-.745-7.081-.961-9.424-.207-2.247.529-5.963.247-7.908s-3.027-5.223-3.881-6.57A13.432,13.432,0,0,1,10.511.447,12.107,12.107,0,0,0,9,10.747c.536,1.662,3.727,3.151,4.409,4.653a18.411,18.411,0,0,1,.554,4.333s-2.388-2.559-3.185-3.287C9.6,15.369,8.028,15.48,6.611,14.289a21.521,21.521,0,0,1-2.817-3.076C3.927,15.2,3.407,14.85,4.6,18.3c.63,1.821,3.282,3.421,4.921,4.145,2.5,1.106,5.59,5.731,5.59,5.731s-2.957-2.217-5.161-2.263a20.709,20.709,0,0,1-5.7-.693c-1.865-.482-4.464-3.634-4.07-1.043.319,2.1,2.394,6.435,5.985,7.954a19.659,19.659,0,0,0,9.674,1.489c2.47-.14,4.06,2.317,4.06,2.317a18.761,18.761,0,0,1-8.113,1.626c-4.15-.193-7.863-.691-7.863-.691s.405,2.3,4.121,4.693a11.7,11.7,0,0,0,8.716,1.525,77.372,77.372,0,0,0,7.857-1.883c.983-.291,3.448,1.556,3.448,1.556a19.737,19.737,0,0,0-5.282.956c-2.482.849-3.661,3.446-6.547,4.1a21.933,21.933,0,0,1-5.292.252s3.62,3.078,5.763,3.762c2.688.858,7.249-.152,9.491-1.221a64.2,64.2,0,0,0,6.693-3.893,7.7,7.7,0,0,1-.806-3.01" transform="translate(-0.137 -0.447)" fill="#2cfdfe" fill-rule="evenodd"/>
        <path id="Fill-6" d="M181.246,43.709a7.821,7.821,0,0,0-.018-1.155c1.5-.762,6.527-3.393,8.973-5.546a27.071,27.071,0,0,0,6.77-8.575c.677-1.659.745-7.081.961-9.424.207-2.247-.529-5.963-.247-7.908s3.027-5.223,3.881-6.57a13.43,13.43,0,0,0,1.25-4.085,12.107,12.107,0,0,1,1.512,10.3c-.536,1.662-3.727,3.151-4.409,4.653a18.413,18.413,0,0,0-.554,4.333s2.388-2.559,3.185-3.287c1.181-1.078,2.749-.967,4.166-2.157a21.52,21.52,0,0,0,2.817-3.076c-.134,3.988.387,3.637-.806,7.084-.63,1.821-3.282,3.421-4.921,4.145-2.5,1.106-5.59,5.731-5.59,5.731s2.957-2.217,5.161-2.263a20.712,20.712,0,0,0,5.7-.693c1.864-.482,4.464-3.634,4.069-1.043-.319,2.1-2.394,6.435-5.985,7.954a19.658,19.658,0,0,1-9.674,1.489c-2.47-.14-4.06,2.317-4.06,2.317a18.761,18.761,0,0,0,8.113,1.626c4.15-.193,7.863-.691,7.863-.691s-.405,2.3-4.121,4.693a11.7,11.7,0,0,1-8.716,1.525,77.369,77.369,0,0,1-7.857-1.883c-.983-.291-3.448,1.556-3.448,1.556a19.738,19.738,0,0,1,5.282.956c2.482.849,3.661,3.446,6.547,4.1a21.931,21.931,0,0,0,5.292.252s-3.62,3.078-5.763,3.762c-2.688.858-7.249-.152-9.491-1.221a64.2,64.2,0,0,1-6.693-3.893,7.7,7.7,0,0,0,.806-3.01" transform="translate(-126.406 -0.447)" fill="#2cfdfe" fill-rule="evenodd"/>
      </g>
      <path id="Fill-9" d="M110.395,186.059c-1.183.9-1.565,2.743-2.407,3.483-3,2.631-7.6.483-6.829.39,1.1-.131,1.388-.728,2.141-1.463s1.172-2.253,4.032-3.288a7.065,7.065,0,0,1,2.417-.183c.688.216.647,1.061.647,1.061" transform="translate(-71.195 -129.512)" fill="#2cfdfe" fill-rule="evenodd"/>
      <path id="Fill-11" d="M157.608,187.024c1.183.9,1.565,2.743,2.407,3.483,3,2.631,7.6.483,6.829.39-1.1-.131-1.388-.728-2.141-1.463s-1.173-2.253-4.032-3.288a7.065,7.065,0,0,0-2.417-.184c-.688.216-.647,1.061-.647,1.061" transform="translate(-110.787 -130.188)" fill="#2cfdfe" fill-rule="evenodd"/>
    </g>
  </g>
</svg>
