<?xml version="1.0" encoding="UTF-8"?>
<svg width="40px" height="40px" viewBox="0 0 40 40" version="1.1" xmlns="http://www.w3.org/2000/svg" xmlns:xlink="http://www.w3.org/1999/xlink">
    <title>kb_icon</title>
    <g id="kb_icon" stroke="none" stroke-width="1" fill="none" fill-rule="evenodd">
        <rect id="Rectangle" fill="#082973" x="-0.251572327" y="-4.02515723" width="41.0062893" height="45.0314465"></rect>
        <g id="kb" transform="translate(5.606716, 11.959135)" fill="#FFFFFF">
            <path d="M13.7636103,13.0287541 L8.26482779,7.62959796 L13.4917938,2.95013104 L14.5516998,2.95013104 L14.5516998,7.13176529e-14 L8.00104087,7.13176529e-14 L8.00104087,2.95013104 L8.8164904,2.95013104 C8.68801695,3.06046356 8.55002695,3.18388134 8.40103344,3.32097916 L4.91529897,6.60121559 L4.91529897,2.95013104 L5.56182971,2.95013104 L5.56182971,7.13176529e-14 L0,7.13176529e-14 L0,2.95013104 L1.00845709,2.95013104 L1.00845709,13.0269698 L0,13.0287541 L0,15.9773982 L5.56182971,15.9773982 L5.56182971,13.0287541 L4.91529897,13.0287541 L4.91529897,9.22153863 L8.61277671,12.8244456 C8.68593521,12.8916563 8.76533893,12.9594617 8.84920355,13.0287541 L7.76134273,13.0287541 L7.76134273,15.9773982 L14.4708091,15.9773982 L14.4708091,13.0287541 L13.7636103,13.0287541" id="Fill-13"></path>
            <path d="M22.1001045,12.5976042 L20.6575392,12.5976042 L20.6575392,8.83370391 L22.2226096,8.83370391 C23.6708917,8.84587854 24.4130002,9.63335632 24.4214395,10.6535357 C24.4059222,11.7323747 23.7727071,12.5801723 22.1001045,12.5976042 Z M20.6575392,2.56053682 L22.1048802,2.56053682 C22.8892738,2.55934375 23.4702135,2.71980937 23.845508,3.01074704 C24.2189244,3.30138477 24.4183094,3.72639371 24.4214395,4.35175972 C24.4145533,5.65348083 23.4035431,6.30944028 22.0576162,6.32443707 L20.6575392,6.32443707 L20.6575392,2.56053682 Z M26.9078048,8.69366744 C26.3838154,8.22519876 25.7395709,7.91480793 25.042841,7.76279834 C25.3946666,7.61867747 25.7537016,7.40295129 26.0813031,7.10682083 C26.7526555,6.4993893 27.2783751,5.53939262 27.2769332,4.20073732 C27.2792403,2.47310738 26.4559108,1.40115154 25.6155669,0.831949966 C24.5854678,0.135922029 23.4175223,0.0512699829 21.2777309,0.0512699829 L15.6390056,0.0512699829 L15.6390056,2.75224675 L16.900675,2.75224675 L16.900675,13.6608311 L15.7687773,13.6608311 L15.7687773,16.3615044 L22.3176349,16.3615044 C24.4349326,16.3615044 25.9042368,15.7774356 26.845226,14.9030012 C27.7865035,14.0297805 28.1864888,12.8728692 28.1853397,11.7793711 C28.1870656,10.4331305 27.6852816,9.38666125 26.9078048,8.69366744 L26.9078048,8.69366744 Z" id="Fill-14"></path>
        </g>
    </g>
</svg>