<svg xmlns="http://www.w3.org/2000/svg" width="40" height="40" xmlns:v="https://vecta.io/nano"><path d="M38.947 4H11.579a1.06 1.06 0 0 0-1.053 1.067v7.467H1.053A1.06 1.06 0 0 0 0 13.6v16C0 33.135 2.828 36 6.316 36h20a1.06 1.06 0 0 0 1.053-1.067 1.06 1.06 0 0 0-1.053-1.067h-20c-2.325 0-4.211-1.91-4.211-4.267V14.667h25.263V29.6c.001 3.048 2.124 5.672 5.074 6.272.409.086.825.129 1.242.128C37.172 36 40 33.135 40 29.6V5.067A1.06 1.06 0 0 0 38.947 4zM37 29.832a4.16 4.16 0 0 1-4.167 4.151c-.277.023-.556.023-.833 0-1.971-.4-3.374-2.147-3.333-4.151V14.265a1.04 1.04 0 0 0-1.042-1.038H12V7h25v22.832zM15 27H4V16h11v11zm10-9c0 .552-.504 1-1.125 1h-6.75C16.504 19 16 18.552 16 18s.504-1 1.125-1h6.75c.621 0 1.125.448 1.125 1zm0 3c0 .552-.504 1-1.125 1h-6.75C16.504 22 16 21.552 16 21s.504-1 1.125-1h6.75c.621 0 1.125.448 1.125 1zm0 5c0 .552-.504 1-1.125 1h-6.75C16.504 27 16 26.552 16 26s.504-1 1.125-1h6.75c.621 0 1.125.448 1.125 1zM5 30a1 1 0 0 1 1-1h18a1 1 0 1 1 0 2H6a1 1 0 0 1-1-1z" fill="#f95f04"/></svg>