<svg xmlns="http://www.w3.org/2000/svg" width="40" height="40" fill-rule="evenodd" xmlns:v="https://vecta.io/nano"><path fill="#f95f04" d="M-.252-4.025h41.006v45.031H-.252z"/><g fill="#fffffe"><path d="M11.575 22.475h1.181c3.515 0 3.273 2.325 3.273 5.065 0 1.498-.121 3.059.485 4.46H21c-.424-.956-.515-5.288-.515-6.754 0-4.14-2.97-4.396-3.97-4.523v-.063c2.97-.51 4.061-2.708 4.061-5.639 0-3.918-2-6.021-5.121-6.021H7v23h4.575v-9.525zM11 13h2.326c1.666 0 2.674.906 2.674 3.308C16 17.911 15.41 20 13.326 20H11v-7h0z"/><path d="M19.483 9.721h4.879l3.481 16.316h.062l9.309-37.878h4.631l-11.329 44h-5.501L19.483 9.721"/></g></svg>