<svg xmlns="http://www.w3.org/2000/svg" width="40" height="40" fill-rule="evenodd" xmlns:v="https://vecta.io/nano"><path fill="#ff2709" d="M-.252-4.025h41.006v45.031H-.252z"/><path d="M11.555 19.623c1.633 0 2.281-.727 2.281-2.641 0-1.939-.648-2.642-2.281-2.642H8.553v5.283h3.002zm.114-8.805c2.092 0 3.549.497 4.496 1.429l-.317-1.429h3.856l2.313 10.926 2.579-10.926h3.349l2.603 10.926 2.313-10.926h3.615l-3.976 18.113H28.79l-2.603-10.732-2.603 10.732H19.85l-2.354-10.658c-.296 1.939-1.188 3.452-2.905 4.218l2.897 6.692h-3.993l-2.581-6.146H8.529v6.146H4.78V10.818h6.89z" fill="#fff" fill-rule="nonzero"/></svg>