<?xml version="1.0" encoding="UTF-8"?>
<svg width="30px" height="30px" viewBox="0 0 30 30" version="1.1" xmlns="http://www.w3.org/2000/svg" xmlns:xlink="http://www.w3.org/1999/xlink">
    <title>sr-logo</title>
    <g id="sr-logo" stroke="none" stroke-width="1" fill="none" fill-rule="evenodd">
        <rect id="Rectangle" fill="#05102A" x="-1.70886076" y="-3.98734177" width="33.9873418" height="35.6962025"></rect>
        <path d="M3.65822785,20.7454741 L5.22977004,18.3579388 C6.0457631,18.8748935 7.41847656,19.4125263 9.15067236,19.4125263 C10.8431024,19.4125263 11.3998228,18.8748935 11.3998228,17.8998375 C11.3998228,16.6066555 10.7238052,16.4078268 8.31559174,15.650687 C5.60833992,14.8156064 4.31515793,13.7196625 4.31515793,11.3114491 C4.31515793,8.4260467 6.14597277,6.97221111 9.40994501,6.97221111 C11.4602667,6.97221111 12.7534487,7.33010281 13.9273335,7.88841385 L12.5737076,10.5558999 C11.8770117,10.2170958 10.8812775,9.89896984 9.48947649,9.89896984 C7.99746579,9.89896984 7.35962326,10.2775397 7.35962326,11.21283 C7.35962326,12.2276518 7.93702186,12.4662463 9.70739277,13.0436448 C13.2306377,14.1777639 14.42361,14.9539912 14.42361,17.8393935 C14.42361,20.4464357 12.8313896,22.0784218 9.22861321,22.0784218 C6.78222467,22.0784218 4.99117557,21.6219111 3.65822785,20.7454741 Z" id="Path" fill="#FFFFFF" fill-rule="nonzero"></path>
        <path d="M20.2597816,16.9800475 L18.214589,16.9800475 L18.214589,22 L15,22 L15,7 L20.9070367,7 C24.6220807,7 26,8.74072476 26,11.7772865 C26,13.9839301 25.2693358,15.7440682 23.4126479,16.5335418 L25.8965726,21.9983822 L22.4734607,21.9983822 L20.2597816,16.9800475 Z M20.2724301,14 C21.5088994,14 22,13.4501466 22,12 C22,10.5322581 21.5088994,10 20.2724301,10 L18,10 L18,14 L20.2724301,14 Z" id="Shape" fill="#FFFFFF" fill-rule="nonzero"></path>
    </g>
</svg>