<svg xmlns="http://www.w3.org/2000/svg" width="50" height="41" fill-rule="evenodd" xmlns:v="https://vecta.io/nano"><path d="M49.998 3.995l-.006-.286c-.051-.761-.32-1.495-.733-2.105-.095-.16-.223-.29-.339-.433-.056-.074-.127-.129-.192-.193L48.53.794l-.217-.158c-.073-.051-.143-.11-.222-.148-.157-.082-.307-.182-.475-.236l-.246-.095c-.084-.027-.17-.043-.255-.064l-.256-.055-.26-.024c-.174-.026-.347-.006-.522 0l-.131.006-.124.014-.247.028L43.6.289 27.81 2.105 12.031 4.04l-7.886 1-.493.063-.123.016-.141.026-.282.054c-.369.105-.736.237-1.065.455l-.126.076-.119.088-.235.18c-.143.138-.298.264-.424.422-.272.295-.488.645-.671 1.011S.165 8.2.081 8.609l-.044.311-.02.156-.007.157-.01.314.019.313.011.156.024.154.051.308.114.535.229 1.063 1.854 8.497L3.83 27.47l.13.547a4.43 4.43 0 0 0 .457 1.093c.401.67.97 1.215 1.632 1.54a3.62 3.62 0 0 0 1.037.328l.268.031.269.008.493-.007 3.925-.075L20 30.733 24.159 41l3.898-9.842 7.637.024 3.969-.015.248-.002.126-.002.139-.007.278-.025s.185-.022.275-.047c.365-.076.72-.21 1.048-.399.66-.373 1.212-.963 1.577-1.667l.129-.269.109-.279.164-.555 3.036-11.543 1.122-4.191 1.146-4.183.581-2.089.276-1.064.03-.139c.009-.046.011-.094.016-.141l.027-.284c.013-.094.008-.19.007-.285" fill="#05102a"/><g fill="#fff"><rect x="7" y="12" width="36" height="2" rx="1"/><rect x="22" y="7" width="21" height="2" rx="1"/><rect x="8" y="17" width="32" height="2" rx="1"/><rect x="10" y="22" width="28" height="2" rx="1"/></g></svg>