<?xml version="1.0" encoding="UTF-8"?>
<svg width="185px" height="68px" viewBox="0 0 185 68" version="1.1" xmlns="http://www.w3.org/2000/svg" xmlns:xlink="http://www.w3.org/1999/xlink">
    <title>Group</title>
    <g id="Page-1" stroke="none" stroke-width="1" fill="none" fill-rule="evenodd">
        <g id="brand-white" transform="translate(0.000000, -108.000000)" fill-rule="nonzero">
            <g id="Group-2" transform="translate(0.000000, 108.000000)">
                <path d="M21.5227212,56 L16.5446768,56 C15.2269592,56 14.3484808,55.1771736 13.4700024,53.9429341 L9.22402336,47.6345985 L7.75989267,49.2802513 L7.75989267,53.9429341 C7.75989267,55.1771736 7.02782732,56 5.7101097,56 L2.04978297,56 C0.732065346,56 0,55.3143114 0,53.9429341 L0,26.7896637 C0,25.5554241 0.732065346,25.0068732 2.04978297,24.7325977 L5.7101097,24.0469091 C7.02782732,23.7726336 7.75989267,24.7325977 7.75989267,26.103975 L7.75989267,42.5605025 L13.4700024,35.4293406 C14.4948939,34.195101 15.2269592,33.3722747 16.5446768,33.3722747 L21.083482,33.3722747 C22.4011996,33.3722747 23.1332649,34.195101 22.1083734,35.4293406 L15.0805461,43.7947421 L22.5476127,53.9429341 C23.5725041,55.1771736 22.6940257,56 21.5227212,56 Z" id="Path" fill="#FFFFFF"></path>
                <path d="M63.145749,44.8969697 C63.145749,38.2060606 67.2267206,35 72.6194332,35 C76.4089069,35 79.6153846,36.6727273 81.0728745,40.0181818 C82.5303644,36.6727273 85.7368421,35 89.5263158,35 C94.9190283,35 99,38.2060606 99,44.8969697 L99,56.8848485 C99,57.4424242 98.417004,58 97.8340081,58 L96.9595142,58 C96.3765182,58 95.7935223,57.4424242 95.7935223,56.8848485 L95.7935223,44.8969697 C95.7935223,40.1575758 93.0242915,37.7878788 89.2348178,37.7878788 C85.4453441,37.7878788 82.6761134,40.1575758 82.6761134,44.8969697 L82.6761134,56.8848485 C82.6761134,57.4424242 82.0931174,58 81.5101215,58 L80.6356275,58 C80.0526316,58 79.4696356,57.4424242 79.4696356,56.8848485 L79.4696356,44.8969697 C79.4696356,40.1575758 76.5546559,37.7878788 72.7651822,37.7878788 C68.9757085,37.7878788 66.2064777,40.1575758 66.2064777,44.8969697 L66.2064777,56.8848485 C66.2064777,57.4424242 65.6234818,58 65.0404858,58 L64.1659919,58 C63.582996,58 63,57.4424242 63,56.8848485 L63,44.8969697 L63.145749,44.8969697 Z" id="Path" fill="#FFFFFF"></path>
                <path d="M58.3103448,45.6737288 L58.3103448,55.6016949 C58.3103448,56.440678 57.7586207,57 56.9310345,57 L53.0689655,57 C52.2413793,57 51.6896552,56.440678 51.6896552,55.6016949 L51.6896552,35.1864407 C51.6896552,34.3474576 52.2413793,33.7881356 53.0689655,33.7881356 L56.9310345,33.7881356 C57.7586207,33.7881356 58.3103448,34.3474576 58.3103448,35.1864407 L58.3103448,36.3050847 L58.3103448,45.6737288 Z" id="Path" fill="#FFFFFF"></path>
                <ellipse id="Oval" fill="#FFFFFF" cx="55" cy="28.0550847" rx="4" ry="4.05508475"></ellipse>
                <path d="M48.0611961,40.4285714 C47.5048679,39 46.5312935,37.5714286 45.418637,36.4285714 C44.3059805,35.4285714 43.1933241,34.5714286 41.8025035,34 C40.4116829,33.4285714 38.8817803,33 37.3518776,33 C35.6828929,33 34.1529903,33.2857143 32.7621697,34.1428571 C32.0667594,34.5714286 31.3713491,35 30.8150209,35.7142857 L30.8150209,35.1428571 C30.8150209,34.2857143 30.2586926,33.7142857 29.4242003,33.7142857 L28.867872,33.7142857 L28.867872,33.7142857 L25.3908206,33.7142857 C24.5563282,33.7142857 24,34.2857143 24,35.1428571 L24,66.5714286 C24,67.4285714 24.5563282,68 25.3908206,68 L29.9805285,68 C30.8150209,68 31.3713491,67.4285714 31.3713491,66.5714286 L31.3713491,56 C31.7885953,56.4285714 32.3449235,56.8571429 32.9012517,57.1428571 C34.2920723,57.8571429 35.961057,58.2857143 37.4909597,58.2857143 C39.0208623,58.2857143 40.550765,58 41.9415855,57.2857143 C43.3324061,56.7142857 44.5841446,55.7142857 45.5577191,54.5714286 C46.6703755,53.4285714 47.5048679,52 48.0611961,50.5714286 C49.3129346,47.2857143 49.3129346,43.7142857 48.0611961,40.4285714 Z M40.9680111,48 C40.689847,48.7142857 40.2726008,49.2857143 39.8553547,49.8571429 C39.4381085,50.2857143 38.7426982,50.7142857 38.18637,51 C36.9346314,51.5714286 35.4047288,51.5714286 34.1529903,51 C33.45758,50.7142857 32.9012517,50.2857143 32.4840056,49.8571429 C31.9276773,49.2857143 31.6495132,48.7142857 31.3713491,48 L31.3713491,48 C30.8150209,46.4285714 30.8150209,44.7142857 31.3713491,43.1428571 C31.6495132,42.4285714 32.0667594,41.8571429 32.4840056,41.2857143 C32.9012517,40.8571429 33.596662,40.4285714 34.1529903,40.1428571 C36.1001391,39.2857143 38.325452,39.8571429 39.8553547,41.2857143 C40.4116829,41.8571429 40.689847,42.4285714 40.9680111,43.1428571 C41.6634214,44.7142857 41.6634214,46.5714286 40.9680111,48 Z" id="Shape" fill="#FFFFFF"></path>
                <path d="M144.857143,26.1082251 L144.857143,37.4675325 C142.857143,34.974026 139.857143,33.4502165 136.428571,33.4502165 C133.142857,33.4502165 130.428571,34.5584416 128.285714,36.9134199 C126.142857,39.1298701 125,41.9004329 125,45.2251082 C125,48.5497835 126,51.3203463 128.285714,53.5367965 C130.428571,55.7532468 133.142857,57 136.428571,57 C139.857143,57 142.857143,55.6147186 144.857143,52.982684 L144.857143,55.3376623 C144.857143,55.8917749 145.428571,56.4458874 146,56.4458874 L146.857143,56.4458874 C147.428571,56.4458874 148,55.8917749 148,55.3376623 L148,26.1082251 C148,25.5541126 147.428571,25 146.857143,25 L146,25 C145.285714,25 144.857143,25.4155844 144.857143,26.1082251 Z M136.428571,53.952381 C134,53.952381 132,53.1212121 130.428571,51.4588745 C128.857143,49.7965368 128.142857,47.7186147 128.142857,45.2251082 C128.142857,42.7316017 128.857143,40.6536797 130.428571,38.991342 C132,37.3290043 134,36.4978355 136.428571,36.4978355 C138.857143,36.4978355 140.857143,37.3290043 142.428571,38.991342 C144,40.6536797 144.857143,42.7316017 144.857143,45.2251082 C144.857143,47.7186147 144,49.7965368 142.428571,51.5974026 C141,53.1212121 139,53.952381 136.428571,53.952381 Z" id="Shape" fill="#FFFFFF"></path>
                <path d="M156.090909,58 L156.909091,58 C157.454545,58 158,57.4320988 158,56.8641975 L158,36.1358025 C158,35.5679012 157.454545,35 156.909091,35 L156.090909,35 C155.545455,35 155,35.5679012 155,36.1358025 L155,56.8641975 C155,57.5740741 155.545455,58 156.090909,58 Z" id="Path" fill="#FFFFFF"></path>
                <path d="M182.857143,35.4235294 C182.285714,35.4235294 181.714286,35.9882353 181.714286,36.5529412 L181.714286,38.9529412 C179.714286,36.4117647 176.714286,35 173.285714,35 C170,35 167.285714,36.1294118 165.142857,38.3882353 C163,40.6470588 162,43.4705882 162,46.8588235 C162,50.2470588 163.142857,53.2117647 165.285714,55.4705882 C167.428571,57.7294118 170.142857,59 173.428571,59 C176.857143,59 179.857143,57.5882353 181.857143,54.9058824 L181.857143,57.3058824 C181.857143,57.8705882 182.428571,58.4352941 183,58.4352941 L183.857143,58.4352941 C184.428571,58.4352941 185,57.8705882 185,57.3058824 L185,36.5529412 C185,35.9882353 184.428571,35.4235294 183.857143,35.4235294 L182.857143,35.4235294 Z M173.428571,55.8941176 C171,55.8941176 169,55.0470588 167.428571,53.3529412 C165.857143,51.6588235 165.142857,49.5411765 165.142857,46.8588235 C165.142857,44.3176471 165.857143,42.2 167.428571,40.5058824 C169,38.8117647 171,37.9647059 173.428571,37.9647059 C175.857143,37.9647059 177.857143,38.8117647 179.428571,40.5058824 C181,42.2 181.857143,44.3176471 181.857143,46.8588235 C181.857143,49.4 181,51.6588235 179.428571,53.3529412 C177.857143,54.9058824 175.857143,55.8941176 173.428571,55.8941176 Z" id="Shape" fill="#FFFFFF"></path>
                <path d="M123,45.0117647 C123,41.6235294 122,38.9411765 120,36.9647059 C118,35.1294118 115.428571,34 112.428571,34 C109,34 106.285714,35.1294118 104.142857,37.3882353 C102,39.6470588 101,42.4705882 101,46 C101,51.5058824 104.142857,58 112.857143,58 C116,58 119.285714,57.0117647 121.714286,55.3176471 L121.714286,55.3176471 C122.285714,55.0352941 122.428571,54.3294118 122.142857,53.7647059 L121.714286,53.2 C121.428571,52.6352941 120.714286,52.4941176 120.142857,52.7764706 L120.142857,52.7764706 C118.285714,54.0470588 115.428571,54.8941176 112.857143,54.8941176 C108,54.8941176 104.714286,52.0705882 104.285714,47.2705882 L121.142857,47.2705882 L121.142857,47.2705882 L121.714286,47.2705882 C122.285714,47.2705882 122.857143,46.8470588 122.857143,46.2823529 L122.857143,46.2823529 C123,45.7176471 123,45.2941176 123,45.0117647 Z M104.285714,44.3058824 C104.857143,39.7882353 108,36.9647059 112.285714,36.9647059 C116.571429,36.9647059 119.428571,39.7882353 119.714286,44.3058824 L104.285714,44.3058824 Z" id="Shape" fill="#FFFFFF"></path>
                <path d="M179.797101,4.18269231 C176.995169,1.39423077 173.352657,0 169.429952,0 C165.78744,0 162.285024,1.39423077 159.623188,3.76442308 C157.101449,6.13461538 155.42029,9.20192308 155,12.5480769 C155,12.6875 155,12.9663462 155,13.2451923 L155,29 L169.710145,29 C171.671498,29 173.63285,28.5817308 175.454106,27.7451923 C180.917874,25.0961538 184,20.0769231 184,14.5 C184,10.5961538 182.458937,6.97115385 179.797101,4.18269231 Z" id="Path" fill="#FFFFFF"></path>
                <ellipse id="Oval" fill="#041D3D" cx="169.429951" cy="15.0576921" rx="2.10144928" ry="2.09134615"></ellipse>
                <ellipse id="Oval" fill="#041D3D" cx="162.84541" cy="15.0576921" rx="2.10144928" ry="2.09134615"></ellipse>
                <ellipse id="Oval" fill="#041D3D" cx="176.014492" cy="15.0576921" rx="2.10144928" ry="2.09134615"></ellipse>
            </g>
        </g>
    </g>
</svg>