<?xml version="1.0" encoding="UTF-8"?>
<svg width="16px" height="16px" viewBox="0 0 16 16" version="1.1" xmlns="http://www.w3.org/2000/svg" xmlns:xlink="http://www.w3.org/1999/xlink">
    <title>favicon</title>
    <g id="favicon" stroke="none" stroke-width="1" fill="none" fill-rule="evenodd">
        <g id="Group" transform="translate(1.000000, 1.000000)" fill-rule="nonzero">
            <path d="M11.9710145,2.01923077 C10.6183575,0.673076923 8.85990338,0 6.96618357,0 C5.20772947,0 3.51690821,0.673076923 2.23188406,1.81730769 C1.01449275,2.96153846 0.202898551,4.44230769 0,6.05769231 C0,6.125 0,6.25961538 0,6.39423077 L0,14 L7.10144928,14 C8.04830918,14 8.99516908,13.7980769 9.87439614,13.3942308 C12.5120773,12.1153846 14,9.69230769 14,7 C14,5.11538462 13.2560386,3.36538462 11.9710145,2.01923077 Z" id="Path" fill="#034EA1"></path>
            <g transform="translate(2.000000, 7.000000)" fill="#FFFFFF" id="Oval">
                <ellipse cx="4.5" cy="1" rx="1.08870968" ry="1"></ellipse>
                <ellipse cx="1.08870968" cy="1" rx="1.08870968" ry="1"></ellipse>
                <ellipse cx="7.91129032" cy="1" rx="1.08870968" ry="1"></ellipse>
            </g>
        </g>
    </g>
</svg>